# xmcd CD database file
#
# Track frame offsets:
#	150
#	22594
#	44502
#	63971
#	84353
#	107779
#	129303
#	144189
#	161172
#	193556
#	212461
#	226170
#	243097
#	268383
#	316719
#	328568
#
# Disc length: 4645 seconds
#
# Revision: 0
# Processed by: cddbd v1.5.2PL0 Copyright (c) Steve Scherf et al.
# Submitted via: Feurio! 1.68 - http://www.feurio.com
#
DISCID=c9122310
DTITLE=Beth Hart - 2013 # The Best Of Beth Hart
DYEAR=2013
DGENRE=
TTITLE0=Your Heart Is As Black As Night
TTITLE1=One Eyed Chicken
TTITLE2=Over You
TTITLE3=Soul Shine
TTITLE4=I'll Take Care Of You
TTITLE5=Baddest Blues
TTITLE6=Bottle of Jesus
TTITLE7=Better Man
TTITLE8=Caught Out In The Rain
TTITLE9=Lay Your Hands On Me
TTITLE10=With You Every Day
TTITLE11=If God Only Knew
TTITLE12=Monkey Back
TTITLE13=Am I The One
TTITLE14=Chocolate Jesus
TTITLE15=Mama
EXTD=
EXTT0=
EXTT1=
EXTT2=
EXTT3=
EXTT4=
EXTT5=
EXTT6=
EXTT7=
EXTT8=
EXTT9=
EXTT10=
EXTT11=
EXTT12=
EXTT13=
EXTT14=
EXTT15=
PLAYORDER=
